PathFileType	4	(X/Y/Z)	..\data\2014007\dynamic\2014007_C5_04.trc
DataRate	CameraRate	NumFrames	NumMarkers	Units	OrigDataRate	OrigDataStartFrame	OrigNumFrames
100.000000	100.000000	4	52	mm	100.000000	39	157
Frame#	Time	L_IAS			L_IPS			R_IPS			R_IAS			L_FTC			L_FLE			L_FME			L_FAX			L_TTC			L_FAL			L_TAM			L_FCC			L_FM1			L_FM2			L_FM5			R_FTC			R_FLE			R_FME			R_FAX			R_TTC			R_FAL			R_TAM			R_FCC			R_FM1			R_FM2			R_FM5			CV7			TV10			SXS			SJN			L_SIA			L_SRS			L_SAA			L_SAE			L_HLE			L_HME			L_UOA			L_RSP			L_UHE			L_HM2			L_HM5			R_SIA			R_SRS			R_SAA			R_SAE			R_HLE			R_HME			R_UOA			R_RSP			R_UHE			R_HM2			R_HM5			
		X1	Y1	Z1	X2	Y2	Z2	X3	Y3	Z3	X4	Y4	Z4	X5	Y5	Z5	X6	Y6	Z6	X7	Y7	Z7	X8	Y8	Z8	X9	Y9	Z9	X10	Y10	Z10	X11	Y11	Z11	X12	Y12	Z12	X13	Y13	Z13	X14	Y14	Z14	X15	Y15	Z15	X16	Y16	Z16	X17	Y17	Z17	X18	Y18	Z18	X19	Y19	Z19	X20	Y20	Z20	X21	Y21	Z21	X22	Y22	Z22	X23	Y23	Z23	X24	Y24	Z24	X25	Y25	Z25	X26	Y26	Z26	X27	Y27	Z27	X28	Y28	Z28	X29	Y29	Z29	X30	Y30	Z30	X31	Y31	Z31	X32	Y32	Z32	X33	Y33	Z33	X34	Y34	Z34	X35	Y35	Z35	X36	Y36	Z36	X37	Y37	Z37	X38	Y38	Z38	X39	Y39	Z39	X40	Y40	Z40	X41	Y41	Z41	X42	Y42	Z42	X43	Y43	Z43	X44	Y44	Z44	X45	Y45	Z45	X46	Y46	Z46	X47	Y47	Z47	X48	Y48	Z48	X49	Y49	Z49	X50	Y50	Z50	X51	Y51	Z51	X52	Y52	Z52	

40	0.39	-709.7775878906251	923.0278930664065	141.2340087890624	-911.109069824219	996.8250122070315	219.2012176513671	-908.8131103515627	1001.194763183594	299.7422790527343	-723.1292724609376	947.0611572265627	393.6412048339844	-770.7274169921877	895.177185058594	77.48241424560538	-811.7742309570315	465.2269287109376	149.9857788085937	-826.1182861328127	457.181121826172	273.6919860839843	-838.511413574219	403.5229492187501	150.3320159912109	-790.4515380859377	391.5496215820314	211.9574279785156	-899.344177246094	66.26094818115236	195.2550506591796	-881.2347412109377	86.7345657348633	275.2118530273437	-952.0605468750002	30.14525794982911	244.7677917480468	-766.3580932617189	29.63486099243165	276.5735778808593	-757.9877319335939	42.66683197021485	223.371841430664	-793.3975830078127	24.0099048614502	174.4446105957031	-788.0355224609377	888.927185058594	455.8236389160156	-624.6204223632814	499.3776855468751	406.8437500000001	-618.1495971679689	499.3243103027345	275.03173828125	-644.8373413085939	433.6782226562501	406.0781555175782	-588.5403442382814	425.7538146972657	353.4295959472656	-730.1431884765626	94.17269134521486	360.2729187011718	-709.9802856445314	119.9367446899414	276.8724670410156	-785.183288574219	69.00245666503908	304.5042419433593	-602.0167846679689	43.2375831604004	286.9891357421875	-597.7119750976564	54.77833175659181	335.6763000488281	-635.9800415039064	44.73181152343751	376.6260070800781	-860.2596435546877	1441.9306640625	229.6935119628906	-912.7749633789065	1204.899047851563	249.3652648925781	-666.1811523437501	1190.61962890625	246.1824188232422	-738.0077514648439	1359.278564453125	231.7349243164062	-922.273376464844	1218.411743164063	146.2498931884765	-901.3343505859377	1357.569213867188	147.1363372802734	-869.0684814453127	1359.239990234375	76.75461578369132	-817.9302978515627	1361.617919921875	49.83482360839835	-797.374450683594	1036.713500976563	-9.488204956054787	-815.6015625000002	1018.657958984375	67.58475494384757	-824.8312988281252	1010.8720703125	18.86990356445303	-639.0271606445314	832.6480102539065	23.13490295410149	-680.8696899414064	821.240661621094	-39.01396942138681	-581.2681884765626	760.4542236328126	9.727826118469169	-666.2467651367189	738.4743652343751	-39.2339630126954	-932.4721679687502	1235.187622070313	340.8613586425781	-903.9571533203127	1363.28369140625	331.6040344238281	-858.5671386718752	1388.792846679688	396.4482421875	-816.3981933593752	1393.551635742188	417.90673828125	-852.5980224609378	1089.134155273438	530.2532348632812	-895.4661865234377	1075.410400390625	456.3576354980469	-895.7547607421878	1062.744750976563	509.5694274902344	-752.0217285156252	845.4963378906252	510.151123046875	-796.3726196289066	851.4072875976565	575.8580322265625	-727.885192871094	766.4046020507814	515.353271484375	-796.3679809570316	775.3760375976565	587.8023071289062	
41	0.4	-698.1094970703126	921.1837158203127	140.2278900146484	-899.2414550781252	995.605895996094	219.8190612792968	-896.400329589844	999.7501220703127	300.4600219726562	-710.1986083984376	945.6984863281252	392.6602478027344	-759.7442016601564	893.9475708007815	76.97277069091788	-807.9290161132815	464.6099548339845	149.7292022705078	-822.4669189453127	457.0313110351564	273.6754150390624	-835.466247558594	403.3279418945314	150.2333679199218	-787.398620605469	390.8398742675782	211.7341156005859	-899.2088012695315	66.64265441894533	195.4259796142578	-880.9729614257815	86.92513275146486	275.3648681640624	-951.8927001953127	30.66735267639161	245.1123809814453	-766.3825073242189	29.61705970764161	276.6879882812499	-757.9015502929689	42.60554122924805	223.3332061767578	-793.5791015625002	23.96333694458008	174.3663024902343	-774.599304199219	887.246520996094	455.5806884765625	-610.0385131835939	498.1145324707032	403.5894165039063	-606.8359375000001	497.7940673828126	272.0027770996094	-627.1098632812501	431.6280517578126	403.1814575195313	-570.8599853515626	427.0251464843751	349.7713012695312	-686.8449707031251	87.14002990722658	357.7495727539062	-669.5315551757814	114.2405090332032	274.2372436523438	-740.6470947265626	58.71502685546876	302.6976928710937	-556.6753540039064	44.32682800292969	282.739990234375	-552.5343627929689	56.3502883911133	331.2098999023438	-589.4832153320314	43.90782165527344	372.8593444824219	-847.869323730469	1440.516235351563	228.9577026367187	-900.2481079101565	1203.502563476563	248.9245147705078	-653.7899780273439	1188.994384765625	245.2412872314453	-725.5959472656251	1357.847534179688	231.0591125488281	-909.703552246094	1216.965942382813	145.4797058105468	-888.857604980469	1356.102905273438	146.3036193847655	-856.4794921875002	1357.639526367188	75.93312835693351	-805.3576660156252	1360.10888671875	49.08876037597648	-778.185241699219	1035.89892578125	-11.54174900054941	-797.460144042969	1017.274475097656	65.4433059692382	-805.121276855469	1008.991638183594	16.48613357543936	-613.5560302734376	836.9686279296877	22.98878669738762	-654.5140991210939	824.048767089844	-39.62205886840829	-553.4249267578126	766.8248291015626	10.18340206146234	-636.9365234375001	741.8365478515626	-39.79954528808602	-920.1644287109377	1233.641235351563	340.0691528320312	-891.6928710937502	1361.803344726563	330.7388610839843	-846.446716308594	1387.354248046875	395.6353454589844	-804.4663085937502	1392.138793945313	417.2448425292969	-842.1197509765628	1088.102905273438	529.7882690429688	-884.2106933593752	1074.207641601563	455.5472717285156	-885.0714111328128	1061.802734375	508.7713012695312	-741.4691162109377	844.277526855469	511.4008178710938	-787.0075683593753	850.2739868164065	576.4737548828125	-717.3750000000002	765.1901855468751	517.128173828125	-787.1391601562503	774.2939453125002	588.5726318359375	
42	0.41	-686.4234008789064	919.1234130859377	139.2435760498046	-887.3320922851565	994.140563964844	220.5749053955078	-883.8951416015627	998.0210571289065	301.3095397949218	-697.2437744140626	943.7193603515627	391.8696899414062	-748.8024902343751	892.5332641601565	76.50464630126946	-803.5518798828127	463.8988647460939	149.4752655029296	-818.2222290039065	456.7778625488282	273.6451721191406	-831.9016113281252	403.0359497070314	150.1362304687499	-783.8999633789065	390.0004882812501	211.5040893554687	-898.9888305664065	67.05629730224611	195.6553802490234	-880.6091308593752	87.11187744140626	275.5594787597656	-951.6614379882815	31.28759002685548	245.5201568603515	-766.3955688476564	29.5491065979004	276.8134765624999	-757.7987670898439	42.52564239501954	223.3053894042968	-793.7791137695315	23.94974327087403	174.3114166259765	-761.0960083007814	885.0964355468752	455.3482971191406	-596.2397460937501	496.1695861816407	400.3532714843751	-596.4537353515626	495.3783264160157	268.9449157714844	-610.2179565429689	429.2347412109376	400.2962036132813	-554.0261840820314	427.9092407226564	346.1513366699219	-643.7698974609376	81.51293182373048	355.233642578125	-629.2026367187501	109.6967544555664	271.7102661132812	-696.0376586914064	49.8587112426758	300.7825927734375	-511.9791870117189	46.65173339843751	278.7437133789062	-508.090057373047	59.23534774780275	326.9528503417969	-543.6225585937501	44.56834030151368	369.3038635253906	-835.4584960937502	1438.847534179688	228.2632293701171	-887.7075805664065	1201.854736328125	248.607192993164	-641.3483276367189	1187.029907226563	244.357421875	-713.1357421875001	1356.1689453125	230.4135131835937	-897.0992431640627	1215.220092773438	144.8227081298827	-876.3522949218752	1354.380249023438	145.5328979492187	-843.8701782226565	1355.764892578125	75.16331481933585	-792.7456054687502	1358.328735351563	48.39315795898429	-759.1174316406251	1034.974487304688	-13.49624443054209	-779.4168090820315	1015.768432617188	63.41905975341789	-785.5281372070315	1007.037109375	14.24704170227042	-588.5068969726564	841.249694824219	22.94671821594232	-628.5524291992189	826.8846435546877	-40.09678268432626	-526.1410522460939	773.193298339844	10.76486301422113	-608.0769653320314	745.3054199218751	-40.20816802978523	-907.7740478515627	1231.833740234375	339.3895874023437	-879.3769531250002	1360.078857421875	329.9429016113281	-834.2522583007815	1385.683837890625	394.8792419433594	-792.4459228515627	1390.500610351563	416.6228942871094	-831.3651123046878	1086.811889648438	529.3390502929688	-872.6485595703127	1072.725830078125	454.7662353515625	-874.0786743164066	1060.582397460938	508.0120544433594	-730.7896118164065	842.7595214843752	512.537109375	-777.2132568359378	848.939880371094	577.0861206054688	-706.8229980468752	763.6428222656251	518.7652587890625	-777.5456542968753	773.0179443359377	589.3872680664062	
43	0.42	-674.7093505859376	916.9000244140627	138.2772674560546	-875.365173339844	992.448913574219	221.4479370117187	-871.2998657226565	996.0363769531252	302.2663879394531	-684.2627563476564	941.1645507812502	391.2495727539063	-737.8848876953126	890.958435058594	76.06715393066399	-798.657409667969	463.0988769531251	149.2190856933593	-813.3491210937502	456.4078979492189	273.5905761718749	-827.825866699219	402.650848388672	150.0407409667968	-779.9468994140627	389.0368041992189	211.2601776123047	-898.6785888671877	67.50844573974611	195.9435424804687	-880.1215820312502	87.3097610473633	275.7990722656249	-951.3636474609377	32.01311874389649	245.9937896728515	-766.3764038085939	29.4399585723877	276.9353027343749	-757.6706542968751	42.43374252319337	223.2854919433593	-793.9852294921877	23.97933006286621	174.2824249267578	-747.5142822265626	882.526794433594	455.1121520996094	-583.0712890625001	493.6558532714845	397.1592407226563	-586.7666625976564	492.2300720214845	265.8802490234375	-594.0708618164064	426.5721740722657	397.4274902343751	-537.9303588867189	428.4527282714845	342.5859069824219	-601.3874511718751	77.30858612060548	352.7166137695312	-589.3863525390626	106.3741912841797	269.2743835449219	-651.8612060546876	42.51266860961915	298.7256164550781	-468.3262023925783	50.14686203002931	275.0526733398438	-464.8001708984377	63.33811950683595	322.9671936035156	-498.881561279297	46.62398147583009	365.9950561523438	-823.0134887695315	1436.946655273438	227.6156158447265	-875.147155761719	1199.980590820313	248.4080200195312	-628.8622436523439	1184.754516601563	243.5405731201172	-700.6154174804689	1354.259033203125	229.8052520751953	-884.4567871093752	1213.211059570313	144.2787322998046	-863.8073730468752	1352.431030273438	144.8292388916015	-831.227722167969	1353.649047851563	74.45272827148429	-780.0820312500002	1356.309326171875	47.75914382934562	-740.1890258789064	1033.955078125	-15.33652400970468	-761.4364624023439	1014.140625	61.52416610717766	-766.0852661132814	1005.031494140625	12.16923332214346	-563.9240112304689	845.4687500000002	22.99983406066888	-603.0258789062501	829.7366943359377	-40.44358062744148	-499.4497375488282	779.5300292968752	11.45094680786127	-579.7220458984376	748.8625488281251	-40.47142410278328	-895.2949829101565	1229.802490234375	338.8296813964843	-866.9917602539065	1358.140625	329.2233276367187	-821.964782714844	1383.810424804688	394.1863403320312	-780.3051757812502	1388.663208007813	416.0426025390625	-820.3201293945316	1085.285522460938	528.9161987304688	-860.785095214844	1070.998657226563	454.0283203125	-862.7742309570316	1059.110473632813	507.3079223632812	-719.982849121094	840.963073730469	513.5523681640625	-766.9862060546877	847.4233398437502	577.6949462890625	-696.2188110351565	761.7858886718751	520.2554931640625	-767.5855712890627	771.5656738281252	590.2420043945312	
